<svg xmlns="http://www.w3.org/2000/svg" xmlns:xlink="http://www.w3.org/1999/xlink" width="1024" zoomAndPan="magnify" viewBox="0 0 768 767.999994" height="1024" preserveAspectRatio="xMidYMid meet" version="1.0"><defs><clipPath id="90dc416df4"><path d="M 154 50 L 600 50 L 600 707 L 154 707 Z M 154 50 " clip-rule="nonzero"/></clipPath><clipPath id="e15cdfee8b"><path d="M 656.757812 601.324219 L 168.101562 727.765625 L 22.875 166.5 L 511.53125 40.058594 Z M 656.757812 601.324219 " clip-rule="nonzero"/></clipPath><clipPath id="c064eadbd1"><path d="M 511.597656 40.320312 L 22.941406 166.757812 L 168.167969 728.023438 L 656.824219 601.585938 Z M 511.597656 40.320312 " clip-rule="nonzero"/></clipPath><clipPath id="5857037a0e"><path d="M 511.597656 40.320312 L 22.941406 166.757812 L 168.167969 728.023438 L 656.824219 601.585938 Z M 511.597656 40.320312 " clip-rule="nonzero"/></clipPath></defs><g clip-path="url(#90dc416df4)"><g clip-path="url(#e15cdfee8b)"><g clip-path="url(#c064eadbd1)"><g clip-path="url(#5857037a0e)"><path fill="#000000" d="M 410.6875 662.410156 C 451.855469 647.863281 480.386719 632.621094 486.847656 621.722656 C 493.289062 610.847656 488.742188 595.082031 474.011719 577.234375 C 464.757812 566.023438 435.332031 547.152344 344.871094 494.414062 C 280.4375 456.851562 223.828125 425.6875 219.078125 425.160156 C 204.707031 423.574219 194.871094 434.617188 195.464844 451.679688 C 195.9375 465.300781 195.257812 466.386719 184.761719 468.789062 C 177.730469 470.394531 171.8125 474.371094 168.890625 479.453125 C 159.988281 494.9375 152.078125 581.820312 154.558594 636.960938 C 156.574219 681.867188 174.902344 701.59375 218.535156 705.835938 C 237.808594 707.710938 247.902344 706.066406 308.488281 691.175781 C 346.023438 681.957031 392.011719 669 410.683594 662.410156 Z M 221.085938 657.84375 C 209.3125 655.902344 206.808594 653.980469 204.523438 645.15625 C 200.082031 627.984375 201.296875 580.820312 207.433594 532.59375 C 210.613281 507.605469 212.640625 484.941406 211.9375 482.238281 C 211.238281 479.53125 212.003906 476.96875 213.636719 476.546875 C 218.617188 475.257812 416.421875 590.320312 420.558594 596.914062 C 422.679688 600.296875 423.898438 603.953125 423.261719 605.035156 C 420.519531 609.695312 353.332031 630.820312 296.511719 644.890625 C 247.414062 657.046875 232.148438 659.671875 221.085938 657.847656 Z M 587.894531 532.164062 C 608.699219 516.433594 604.40625 481.710938 547.46875 205.148438 C 523.15625 87.070312 519.039062 70.292969 512.121094 61.179688 C 499.199219 44.148438 492.96875 45.167969 420.613281 76.128906 C 328.027344 115.753906 304.109375 130.164062 285.476562 157.558594 C 254.914062 202.507812 280.753906 249.113281 418.617188 397.683594 C 542.101562 530.765625 565.332031 549.21875 587.894531 532.164062 Z M 495.417969 408.945312 C 437.703125 348.535156 352.820312 250.710938 336.886719 226.25 C 318.199219 197.554688 318.695312 189.296875 340.246094 170.578125 C 355.535156 157.304688 404.648438 133.402344 456.171875 114.167969 L 475.933594 106.789062 L 481.042969 126.535156 C 494.191406 177.363281 547.035156 445.847656 545.113281 452.0625 C 543.375 457.664062 535.105469 450.492188 495.414062 408.945312 Z M 495.417969 408.945312 " fill-opacity="1" fill-rule="nonzero"/></g></g></g></g></svg>