<svg xmlns="http://www.w3.org/2000/svg" xmlns:xlink="http://www.w3.org/1999/xlink" width="1024" zoomAndPan="magnify" viewBox="0 0 768 767.999994" height="1024" preserveAspectRatio="xMidYMid meet" version="1.0"><defs><clipPath id="4767cdb297"><path d="M 186 50 L 315 50 L 315 669 L 186 669 Z M 186 50 " clip-rule="nonzero"/></clipPath><clipPath id="5f5e8e64a7"><path d="M 307.058594 -127.007812 L 757.75 62.722656 L 460.9375 767.792969 L 10.242188 578.066406 Z M 307.058594 -127.007812 " clip-rule="nonzero"/></clipPath><clipPath id="b094ba319e"><path d="M 307.058594 -127.007812 L 757.75 62.722656 L 460.9375 767.792969 L 10.242188 578.066406 Z M 307.058594 -127.007812 " clip-rule="nonzero"/></clipPath><clipPath id="dcfc015c25"><path d="M 307.058594 -127.007812 L 757.75 62.722656 L 460.9375 767.792969 L 10.242188 578.066406 Z M 307.058594 -127.007812 " clip-rule="nonzero"/></clipPath><clipPath id="bd99471519"><path d="M 402 44 L 738 44 L 738 607 L 402 607 Z M 402 44 " clip-rule="nonzero"/></clipPath><clipPath id="b13b7f189c"><path d="M 307.058594 -127.007812 L 757.75 62.722656 L 460.9375 767.792969 L 10.242188 578.066406 Z M 307.058594 -127.007812 " clip-rule="nonzero"/></clipPath><clipPath id="185ebc444c"><path d="M 307.058594 -127.007812 L 757.75 62.722656 L 460.9375 767.792969 L 10.242188 578.066406 Z M 307.058594 -127.007812 " clip-rule="nonzero"/></clipPath><clipPath id="aa258adc75"><path d="M 307.058594 -127.007812 L 757.75 62.722656 L 460.9375 767.792969 L 10.242188 578.066406 Z M 307.058594 -127.007812 " clip-rule="nonzero"/></clipPath></defs><g clip-path="url(#4767cdb297)"><g clip-path="url(#5f5e8e64a7)"><g clip-path="url(#b094ba319e)"><g clip-path="url(#dcfc015c25)"><path fill="#000000" d="M 198.546875 651.90625 C 191.820312 643.71875 187.199219 632.4375 186.417969 622.304688 C 185.542969 610.914062 194.175781 589.542969 202.515625 582.441406 C 218.007812 569.253906 235.160156 566.699219 254.25 574.734375 C 268.765625 580.847656 276.851562 588.828125 281.53125 601.679688 C 286.261719 614.660156 285.863281 623.726562 279.945312 637.789062 C 272.015625 656.621094 258.320312 666.757812 238.769531 668.257812 C 227.492188 669.125 205.277344 660.09375 198.546875 651.90625 Z M 203.304688 475.152344 C 192.46875 461.984375 191.058594 453.660156 190.933594 402.015625 C 190.867188 374.429688 190.757812 345.046875 190.691406 336.71875 C 190.269531 285.53125 192.71875 227.539062 196.664062 195.300781 C 201.25 157.839844 214.167969 93.667969 219.84375 80.160156 C 230.957031 53.757812 255.867188 43.785156 282.640625 55.054688 C 298.03125 61.535156 305.605469 69.496094 310.964844 84.820312 C 315.761719 98.546875 315.507812 102.410156 306.90625 146.527344 C 298.6875 188.6875 294.9375 220.40625 292.96875 264.46875 C 291.707031 292.757812 291.539062 310.160156 291.585938 405.527344 C 291.601562 442.210938 291.21875 445.554688 285.414062 459.34375 C 276.726562 479.976562 263.738281 489.953125 243.527344 491.503906 C 232.253906 492.367188 210.039062 483.339844 203.300781 475.15625 Z M 203.304688 475.152344 " fill-opacity="1" fill-rule="nonzero"/></g></g></g></g><g clip-path="url(#bd99471519)"><g clip-path="url(#b13b7f189c)"><g clip-path="url(#185ebc444c)"><g clip-path="url(#aa258adc75)"><path fill="#000000" d="M 403.984375 572.351562 C 401.164062 562.136719 401.523438 549.953125 404.925781 540.375 C 408.753906 529.613281 425.324219 513.589844 435.828125 510.488281 C 455.34375 504.734375 472.054688 509.367188 486.234375 524.464844 C 497.019531 535.945312 501.160156 546.523438 500.21875 560.164062 C 499.269531 573.949219 495.222656 582.074219 484.101562 592.515625 C 469.207031 606.503906 452.570312 610.203125 434.097656 603.632812 C 423.441406 599.839844 406.808594 582.566406 403.984375 572.351562 Z M 480.136719 412.777344 C 475.582031 396.34375 477.679688 388.164062 498.546875 340.921875 C 509.691406 315.691406 521.527344 288.796875 524.847656 281.15625 C 545.257812 234.214844 571.054688 182.21875 587.753906 154.363281 C 607.164062 121.996094 645.039062 68.605469 655.710938 58.566406 C 676.59375 38.957031 703.40625 39.964844 723.292969 61.136719 C 734.726562 73.308594 738.414062 83.660156 737.085938 99.835938 C 735.890625 114.328125 734.089844 117.757812 708.308594 154.574219 C 683.667969 189.761719 667.359375 217.21875 647.664062 256.683594 C 635.015625 282.019531 627.789062 297.851562 589.089844 385.015625 C 574.207031 418.542969 572.5 421.441406 561.59375 431.683594 C 545.273438 447.011719 529.351562 450.847656 510.253906 444.054688 C 499.601562 440.261719 482.964844 422.992188 480.132812 412.777344 Z M 480.136719 412.777344 " fill-opacity="1" fill-rule="nonzero"/></g></g></g></g></svg>