<svg xmlns="http://www.w3.org/2000/svg" xmlns:xlink="http://www.w3.org/1999/xlink" zoomAndPan="magnify" preserveAspectRatio="xMidYMid meet" version="1.0" viewBox="34.32 120.62 304.04 116.99"><defs><g/></defs><g fill="#00aeed" fill-opacity="1"><g transform="translate(49.682333, 223.61964)"><g><path d="M 17.65625 -2.742188 C 18.316406 -2.414062 19.191406 -2.195312 20.070312 -2.195312 C 20.945312 -2.195312 21.714844 -2.304688 22.371094 -2.632812 C 23.03125 -2.851562 23.796875 -3.398438 24.566406 -4.277344 C 25.222656 -4.933594 25.664062 -5.703125 25.882812 -6.46875 C 25.882812 -6.800781 25.992188 -8.445312 26.101562 -11.296875 C 26.210938 -14.148438 26.320312 -17.4375 26.320312 -21.167969 C 26.320312 -24.894531 26.429688 -27.308594 26.648438 -28.515625 C 26.757812 -29.722656 26.871094 -31.804688 27.089844 -34.765625 C 27.308594 -41.566406 27.527344 -47.269531 27.527344 -52.09375 C 27.527344 -55.054688 27.417969 -57.6875 27.308594 -59.878906 C 26.980469 -65.363281 26.210938 -69.53125 24.894531 -72.601562 C 24.238281 -73.917969 23.46875 -75.234375 22.484375 -76.332031 C 21.386719 -77.425781 20.289062 -78.195312 19.191406 -78.851562 C 18.425781 -79.183594 17.765625 -79.402344 17.21875 -79.621094 C 16.558594 -79.621094 15.464844 -79.730469 13.929688 -79.730469 C 11.953125 -79.730469 10.308594 -79.511719 9.101562 -79.183594 C 7.785156 -78.851562 6.140625 -78.195312 4.167969 -77.316406 C 1.753906 -76.222656 0.4375 -74.6875 0.109375 -72.820312 C 0 -72.382812 0 -72.054688 0 -71.835938 C 0 -70.1875 0.769531 -68.761719 2.304688 -67.558594 C 2.742188 -67.117188 3.179688 -66.898438 3.617188 -66.789062 C 4.058594 -66.570312 4.496094 -66.351562 5.042969 -66.351562 C 5.703125 -66.132812 6.46875 -66.132812 7.128906 -66.351562 C 7.675781 -66.460938 9.101562 -66.898438 11.40625 -67.777344 C 12.503906 -68.214844 13.269531 -68.324219 13.597656 -68.214844 C 13.820312 -67.996094 14.039062 -67.335938 14.367188 -66.023438 C 14.914062 -63.390625 15.246094 -59.441406 15.355469 -54.175781 C 15.355469 -48.804688 15.246094 -41.785156 14.914062 -33.121094 C 14.695312 -30.160156 14.585938 -28.183594 14.476562 -27.089844 C 14.257812 -25.882812 14.148438 -23.46875 14.148438 -19.960938 L 14.148438 -14.914062 C 14.039062 -13.488281 14.039062 -12.28125 14.039062 -11.296875 C 14.039062 -8.992188 14.039062 -7.566406 14.148438 -7.019531 C 14.148438 -6.359375 14.367188 -5.921875 14.585938 -5.484375 C 15.023438 -4.714844 15.464844 -4.167969 15.902344 -3.730469 C 16.339844 -3.289062 16.890625 -2.960938 17.65625 -2.742188 Z M 17.65625 -2.742188 "/></g></g></g><g fill="#00aeed" fill-opacity="1"><g transform="translate(78.960402, 223.61964)"><g><path d="M 4.277344 0 C 5.15625 0.65625 6.25 0.878906 7.347656 0.878906 C 7.785156 0.878906 8.335938 0.878906 8.992188 0.65625 C 10.636719 0.21875 11.84375 -0.769531 12.722656 -2.304688 C 12.941406 -2.851562 13.269531 -3.289062 13.488281 -3.730469 C 13.269531 -7.675781 13.050781 -10.746094 13.050781 -12.722656 C 12.832031 -17.984375 12.722656 -22.371094 12.722656 -26.101562 C 12.613281 -29.722656 12.722656 -31.585938 12.941406 -31.585938 C 12.941406 -31.585938 13.160156 -31.148438 13.488281 -30.488281 C 13.707031 -29.832031 14.039062 -28.953125 14.476562 -28.074219 C 16.890625 -20.945312 19.960938 -15.355469 23.6875 -11.1875 C 27.308594 -7.019531 30.816406 -5.042969 34.328125 -5.042969 C 38.933594 -5.042969 42.660156 -7.894531 45.511719 -13.707031 C 48.144531 -19.410156 50.230469 -28.734375 51.765625 -41.675781 C 51.984375 -43.648438 52.203125 -45.953125 52.421875 -48.585938 C 52.640625 -51.105469 52.859375 -53.738281 53.082031 -56.480469 C 53.300781 -61.523438 53.519531 -66.242188 53.738281 -70.628906 C 53.738281 -72.492188 53.847656 -74.136719 53.847656 -75.453125 C 53.847656 -76.988281 53.738281 -78.085938 53.628906 -78.742188 C 53.410156 -79.402344 53.082031 -80.277344 52.421875 -81.15625 C 51.65625 -81.925781 50.886719 -82.472656 50.230469 -82.800781 C 49.460938 -83.019531 48.695312 -83.238281 48.035156 -83.238281 C 47.597656 -83.238281 47.160156 -83.128906 46.828125 -83.128906 C 45.621094 -82.910156 44.636719 -82.472656 43.757812 -81.703125 C 42.882812 -80.828125 42.332031 -79.839844 42.222656 -78.851562 C 42.003906 -77.757812 41.785156 -75.015625 41.675781 -70.628906 C 41.234375 -59.988281 40.578125 -50.996094 39.808594 -43.757812 C 39.042969 -36.410156 38.054688 -30.160156 36.738281 -25.113281 C 36.082031 -22.921875 35.644531 -21.277344 35.203125 -20.179688 C 34.65625 -18.972656 34.21875 -18.425781 33.996094 -18.425781 C 33.558594 -18.425781 32.570312 -19.519531 30.925781 -21.933594 C 29.171875 -24.238281 27.855469 -26.757812 26.871094 -29.5 C 25.773438 -31.914062 24.785156 -34.875 23.796875 -38.386719 C 22.8125 -41.785156 21.496094 -46.828125 19.742188 -53.628906 C 17.984375 -59.988281 16.890625 -64.265625 16.339844 -66.351562 C 15.683594 -68.324219 15.132812 -69.859375 14.476562 -70.957031 C 13.269531 -72.929688 11.734375 -74.027344 9.761719 -74.464844 C 7.785156 -74.796875 6.03125 -74.246094 4.496094 -72.820312 C 3.179688 -71.613281 2.304688 -69.859375 1.863281 -67.558594 C 1.425781 -65.144531 1.097656 -60.210938 0.769531 -52.75 C 0.65625 -50.996094 0.65625 -48.804688 0.65625 -46.171875 C 0.546875 -43.429688 0.546875 -40.578125 0.546875 -37.507812 C 0.546875 -31.804688 0.546875 -26.101562 0.769531 -20.398438 C 0.769531 -14.585938 0.988281 -10.417969 1.207031 -8.007812 C 1.316406 -5.375 1.644531 -3.507812 2.082031 -2.523438 C 2.414062 -1.425781 3.179688 -0.65625 4.277344 0 Z M 4.277344 0 "/></g></g></g><g fill="#00aeed" fill-opacity="1"><g transform="translate(135.104115, 223.61964)"><g><path d="M 17.65625 -2.742188 C 18.316406 -2.414062 19.191406 -2.195312 20.070312 -2.195312 C 20.945312 -2.195312 21.714844 -2.304688 22.371094 -2.632812 C 23.03125 -2.851562 23.796875 -3.398438 24.566406 -4.277344 C 25.222656 -4.933594 25.664062 -5.703125 25.882812 -6.46875 C 25.882812 -6.800781 25.992188 -8.445312 26.101562 -11.296875 C 26.210938 -14.148438 26.320312 -17.4375 26.320312 -21.167969 C 26.320312 -24.894531 26.429688 -27.308594 26.648438 -28.515625 C 26.757812 -29.722656 26.871094 -31.804688 27.089844 -34.765625 C 27.308594 -41.566406 27.527344 -47.269531 27.527344 -52.09375 C 27.527344 -55.054688 27.417969 -57.6875 27.308594 -59.878906 C 26.980469 -65.363281 26.210938 -69.53125 24.894531 -72.601562 C 24.238281 -73.917969 23.46875 -75.234375 22.484375 -76.332031 C 21.386719 -77.425781 20.289062 -78.195312 19.191406 -78.851562 C 18.425781 -79.183594 17.765625 -79.402344 17.21875 -79.621094 C 16.558594 -79.621094 15.464844 -79.730469 13.929688 -79.730469 C 11.953125 -79.730469 10.308594 -79.511719 9.101562 -79.183594 C 7.785156 -78.851562 6.140625 -78.195312 4.167969 -77.316406 C 1.753906 -76.222656 0.4375 -74.6875 0.109375 -72.820312 C 0 -72.382812 0 -72.054688 0 -71.835938 C 0 -70.1875 0.769531 -68.761719 2.304688 -67.558594 C 2.742188 -67.117188 3.179688 -66.898438 3.617188 -66.789062 C 4.058594 -66.570312 4.496094 -66.351562 5.042969 -66.351562 C 5.703125 -66.132812 6.46875 -66.132812 7.128906 -66.351562 C 7.675781 -66.460938 9.101562 -66.898438 11.40625 -67.777344 C 12.503906 -68.214844 13.269531 -68.324219 13.597656 -68.214844 C 13.820312 -67.996094 14.039062 -67.335938 14.367188 -66.023438 C 14.914062 -63.390625 15.246094 -59.441406 15.355469 -54.175781 C 15.355469 -48.804688 15.246094 -41.785156 14.914062 -33.121094 C 14.695312 -30.160156 14.585938 -28.183594 14.476562 -27.089844 C 14.257812 -25.882812 14.148438 -23.46875 14.148438 -19.960938 L 14.148438 -14.914062 C 14.039062 -13.488281 14.039062 -12.28125 14.039062 -11.296875 C 14.039062 -8.992188 14.039062 -7.566406 14.148438 -7.019531 C 14.148438 -6.359375 14.367188 -5.921875 14.585938 -5.484375 C 15.023438 -4.714844 15.464844 -4.167969 15.902344 -3.730469 C 16.339844 -3.289062 16.890625 -2.960938 17.65625 -2.742188 Z M 17.65625 -2.742188 "/></g></g></g><g fill="#00aeed" fill-opacity="1"><g transform="translate(164.382184, 223.61964)"><g><path d="M 16.78125 2.195312 C 17.875 2.632812 19.300781 2.742188 20.835938 2.742188 L 21.496094 2.742188 C 23.25 2.742188 24.894531 2.414062 26.210938 1.972656 C 28.40625 1.316406 30.488281 0 32.683594 -1.972656 C 34.765625 -3.839844 36.628906 -6.03125 38.164062 -8.554688 C 39.261719 -10.527344 40.359375 -12.613281 41.347656 -14.804688 C 42.222656 -16.890625 42.660156 -18.316406 42.660156 -19.191406 C 42.660156 -21.605469 41.234375 -23.25 38.605469 -24.128906 C 35.863281 -24.894531 33.667969 -24.347656 32.023438 -22.371094 C 31.804688 -22.042969 31.476562 -21.496094 31.035156 -20.617188 C 30.597656 -19.742188 30.160156 -18.753906 29.722656 -17.875 C 28.183594 -14.695312 26.757812 -12.171875 25.222656 -10.417969 C 23.6875 -8.664062 22.261719 -7.785156 21.058594 -7.785156 C 19.519531 -7.785156 17.984375 -9.320312 16.449219 -12.613281 C 14.914062 -15.792969 13.707031 -19.742188 12.941406 -24.457031 C 12.722656 -25.113281 12.613281 -26.101562 12.613281 -27.417969 C 12.394531 -28.625 12.28125 -29.941406 12.28125 -31.476562 C 12.171875 -34.21875 12.171875 -37.070312 12.171875 -40.140625 C 12.171875 -43.210938 12.171875 -45.621094 12.394531 -47.378906 C 12.722656 -51.214844 13.269531 -54.726562 14.039062 -57.90625 C 14.695312 -60.976562 15.574219 -63.71875 16.671875 -65.914062 C 17.328125 -67.226562 17.984375 -68.324219 18.753906 -69.3125 C 19.410156 -70.1875 19.960938 -70.738281 20.289062 -70.738281 C 20.398438 -70.738281 20.617188 -70.628906 20.835938 -70.410156 C 21.058594 -70.1875 21.277344 -69.859375 21.496094 -69.640625 C 22.59375 -67.996094 23.140625 -65.582031 23.359375 -62.402344 C 23.46875 -59.113281 23.140625 -55.710938 22.484375 -52.203125 C 21.824219 -49.242188 21.496094 -47.269531 21.714844 -46.390625 C 21.824219 -45.402344 22.371094 -44.527344 23.46875 -43.648438 C 24.785156 -42.550781 26.210938 -42.003906 27.964844 -42.222656 C 29.609375 -42.332031 31.035156 -42.992188 32.242188 -44.308594 C 32.683594 -44.746094 33.230469 -45.953125 33.777344 -47.925781 C 34.21875 -49.789062 34.65625 -51.984375 35.09375 -54.617188 C 35.3125 -56.589844 35.421875 -59.222656 35.3125 -62.292969 C 35.09375 -65.363281 34.875 -67.667969 34.4375 -69.203125 C 33.667969 -71.835938 32.460938 -74.246094 30.925781 -76.332031 C 29.28125 -78.304688 27.417969 -79.839844 25.332031 -80.71875 C 24.347656 -81.15625 23.578125 -81.375 23.03125 -81.484375 C 22.484375 -81.59375 21.605469 -81.703125 20.507812 -81.703125 C 18.972656 -81.703125 17.546875 -81.484375 16.339844 -81.046875 C 15.023438 -80.609375 13.707031 -79.949219 12.503906 -79.074219 C 8.554688 -76.222656 5.484375 -71.175781 3.289062 -63.9375 C 0.988281 -56.480469 -0.109375 -47.816406 -0.109375 -37.945312 C -0.109375 -31.367188 0.328125 -25.554688 1.425781 -20.289062 C 2.523438 -15.023438 4.058594 -10.636719 6.03125 -7.019531 C 7.347656 -4.605469 8.882812 -2.632812 10.855469 -1.097656 C 12.722656 0.546875 14.695312 1.644531 16.78125 2.195312 Z M 16.78125 2.195312 "/></g></g></g><g fill="#00aeed" fill-opacity="1"><g transform="translate(209.341016, 223.61964)"><g><path d="M 17.65625 -2.742188 C 18.316406 -2.414062 19.191406 -2.195312 20.070312 -2.195312 C 20.945312 -2.195312 21.714844 -2.304688 22.371094 -2.632812 C 23.03125 -2.851562 23.796875 -3.398438 24.566406 -4.277344 C 25.222656 -4.933594 25.664062 -5.703125 25.882812 -6.46875 C 25.882812 -6.800781 25.992188 -8.445312 26.101562 -11.296875 C 26.210938 -14.148438 26.320312 -17.4375 26.320312 -21.167969 C 26.320312 -24.894531 26.429688 -27.308594 26.648438 -28.515625 C 26.757812 -29.722656 26.871094 -31.804688 27.089844 -34.765625 C 27.308594 -41.566406 27.527344 -47.269531 27.527344 -52.09375 C 27.527344 -55.054688 27.417969 -57.6875 27.308594 -59.878906 C 26.980469 -65.363281 26.210938 -69.53125 24.894531 -72.601562 C 24.238281 -73.917969 23.46875 -75.234375 22.484375 -76.332031 C 21.386719 -77.425781 20.289062 -78.195312 19.191406 -78.851562 C 18.425781 -79.183594 17.765625 -79.402344 17.21875 -79.621094 C 16.558594 -79.621094 15.464844 -79.730469 13.929688 -79.730469 C 11.953125 -79.730469 10.308594 -79.511719 9.101562 -79.183594 C 7.785156 -78.851562 6.140625 -78.195312 4.167969 -77.316406 C 1.753906 -76.222656 0.4375 -74.6875 0.109375 -72.820312 C 0 -72.382812 0 -72.054688 0 -71.835938 C 0 -70.1875 0.769531 -68.761719 2.304688 -67.558594 C 2.742188 -67.117188 3.179688 -66.898438 3.617188 -66.789062 C 4.058594 -66.570312 4.496094 -66.351562 5.042969 -66.351562 C 5.703125 -66.132812 6.46875 -66.132812 7.128906 -66.351562 C 7.675781 -66.460938 9.101562 -66.898438 11.40625 -67.777344 C 12.503906 -68.214844 13.269531 -68.324219 13.597656 -68.214844 C 13.820312 -67.996094 14.039062 -67.335938 14.367188 -66.023438 C 14.914062 -63.390625 15.246094 -59.441406 15.355469 -54.175781 C 15.355469 -48.804688 15.246094 -41.785156 14.914062 -33.121094 C 14.695312 -30.160156 14.585938 -28.183594 14.476562 -27.089844 C 14.257812 -25.882812 14.148438 -23.46875 14.148438 -19.960938 L 14.148438 -14.914062 C 14.039062 -13.488281 14.039062 -12.28125 14.039062 -11.296875 C 14.039062 -8.992188 14.039062 -7.566406 14.148438 -7.019531 C 14.148438 -6.359375 14.367188 -5.921875 14.585938 -5.484375 C 15.023438 -4.714844 15.464844 -4.167969 15.902344 -3.730469 C 16.339844 -3.289062 16.890625 -2.960938 17.65625 -2.742188 Z M 17.65625 -2.742188 "/></g></g></g><g fill="#00aeed" fill-opacity="1"><g transform="translate(238.619085, 223.61964)"><g><path d="M 30.160156 -83.679688 C 29.722656 -83.679688 29.390625 -83.789062 29.0625 -83.789062 C 28.734375 -83.789062 28.40625 -83.898438 28.183594 -83.898438 L 27.855469 -83.898438 C 26.210938 -83.789062 24.675781 -83.238281 23.359375 -82.253906 C 21.933594 -81.265625 20.726562 -79.839844 19.742188 -78.085938 C 18.535156 -75.890625 17.21875 -72.601562 15.902344 -68.324219 C 14.585938 -63.9375 13.269531 -59.222656 12.171875 -53.957031 C 11.515625 -51.105469 10.96875 -48.253906 10.417969 -45.402344 C 9.871094 -42.441406 9.433594 -39.589844 9.101562 -36.738281 C 8.882812 -35.863281 8.773438 -35.203125 8.664062 -34.546875 C 8.445312 -33.886719 8.335938 -33.449219 8.335938 -33.449219 C 8.117188 -33.339844 7.785156 -33.230469 7.238281 -33.230469 C 6.582031 -33.121094 5.703125 -33.011719 4.496094 -33.011719 C 3.617188 -32.902344 2.851562 -32.683594 2.304688 -32.351562 C 1.644531 -31.914062 1.097656 -31.585938 0.65625 -31.148438 C -0.109375 -30.050781 -0.4375 -28.953125 -0.4375 -27.855469 C -0.4375 -27.199219 -0.328125 -26.429688 0 -25.773438 C 0.65625 -23.6875 2.082031 -22.703125 4.277344 -22.8125 L 5.15625 -22.8125 C 5.375 -22.8125 5.59375 -22.8125 5.703125 -22.921875 C 6.140625 -22.921875 6.359375 -22.261719 6.359375 -20.945312 C 6.359375 -19.519531 6.25 -17.984375 6.03125 -16.230469 C 5.921875 -14.914062 5.8125 -13.707031 5.703125 -12.503906 C 5.484375 -11.296875 5.375 -10.199219 5.265625 -9.320312 C 5.042969 -8.007812 4.933594 -6.910156 4.933594 -5.8125 C 4.824219 -4.605469 4.824219 -3.839844 4.824219 -3.507812 C 4.824219 -2.195312 5.265625 -1.097656 6.140625 -0.21875 C 7.019531 0.769531 8.226562 1.316406 9.761719 1.535156 C 10.96875 1.753906 12.171875 1.644531 13.488281 0.988281 C 14.804688 0.4375 15.683594 -0.328125 16.121094 -1.316406 C 16.230469 -1.535156 16.449219 -2.304688 16.671875 -3.617188 C 16.890625 -4.933594 17.109375 -6.359375 17.328125 -8.117188 C 17.328125 -8.773438 17.4375 -9.761719 17.65625 -11.078125 C 17.875 -12.28125 18.09375 -13.597656 18.316406 -15.023438 C 18.535156 -17 18.863281 -18.753906 19.191406 -20.507812 C 19.410156 -22.152344 19.632812 -23.03125 19.742188 -23.03125 C 19.851562 -23.03125 20.507812 -23.140625 21.714844 -23.25 L 31.148438 -23.25 C 31.585938 -23.140625 31.914062 -22.921875 32.132812 -22.703125 C 32.242188 -22.261719 32.351562 -21.277344 32.570312 -19.632812 C 32.683594 -17.984375 32.902344 -14.148438 33.339844 -8.117188 C 33.449219 -5.484375 33.558594 -3.507812 33.777344 -2.304688 C 33.886719 -0.988281 33.996094 -0.21875 34.21875 0 C 34.4375 0.546875 34.984375 1.097656 35.644531 1.535156 C 36.300781 2.082031 36.847656 2.414062 37.398438 2.523438 C 37.617188 2.632812 37.945312 2.742188 38.605469 2.742188 L 40.140625 2.742188 C 40.796875 2.742188 41.457031 2.742188 41.894531 2.523438 C 42.332031 2.414062 42.773438 2.195312 43.210938 1.863281 C 44.308594 1.097656 45.074219 0.328125 45.292969 -0.4375 C 45.402344 -0.988281 45.511719 -1.972656 45.511719 -3.398438 L 45.511719 -5.921875 C 45.292969 -8.226562 45.183594 -10.96875 44.964844 -14.039062 C 44.746094 -17.109375 44.417969 -20.398438 44.199219 -23.910156 C 43.648438 -30.269531 42.992188 -36.847656 42.332031 -43.539062 C 41.457031 -50.121094 40.796875 -55.492188 40.140625 -59.660156 C 39.371094 -64.597656 38.605469 -68.542969 37.945312 -71.613281 C 37.289062 -74.574219 36.519531 -76.988281 35.753906 -78.742188 C 35.203125 -79.839844 34.4375 -80.828125 33.339844 -81.8125 C 32.242188 -82.691406 31.148438 -83.351562 30.160156 -83.679688 Z M 21.058594 -33.777344 C 20.835938 -33.996094 21.058594 -35.535156 21.496094 -38.164062 C 21.824219 -40.6875 22.371094 -43.539062 23.03125 -46.828125 C 23.6875 -50.667969 24.566406 -54.398438 25.445312 -57.90625 C 26.210938 -61.414062 26.757812 -63.171875 27.089844 -63.28125 C 27.199219 -63.28125 27.308594 -62.839844 27.527344 -62.183594 C 27.746094 -61.414062 27.964844 -60.320312 28.183594 -58.785156 C 28.40625 -57.25 28.625 -55.382812 28.953125 -53.300781 C 29.171875 -51.105469 29.5 -48.914062 29.832031 -46.71875 L 30.816406 -37.835938 C 31.035156 -35.203125 31.148438 -33.777344 31.148438 -33.777344 C 31.035156 -33.667969 30.488281 -33.558594 29.609375 -33.558594 C 28.625 -33.558594 27.527344 -33.449219 26.210938 -33.449219 C 23.910156 -33.339844 22.484375 -33.339844 22.042969 -33.339844 C 21.496094 -33.339844 21.167969 -33.449219 21.058594 -33.777344 Z M 21.058594 -33.777344 "/></g></g></g><g fill="#00aeed" fill-opacity="1"><g transform="translate(285.77103, 223.61964)"><g><path d="M 15.902344 -86.203125 C 14.039062 -86.640625 12.503906 -86.96875 11.40625 -87.1875 C 10.089844 -87.40625 9.101562 -87.625 8.226562 -87.625 C 7.347656 -87.625 6.691406 -87.515625 6.140625 -87.296875 C 5.484375 -87.078125 4.933594 -86.75 4.496094 -86.3125 C 3.617188 -85.652344 2.960938 -84.664062 2.523438 -83.570312 C 1.972656 -82.472656 1.535156 -80.277344 1.316406 -76.988281 C 1.097656 -75.234375 0.988281 -73.039062 0.878906 -70.519531 C 0.65625 -67.886719 0.546875 -64.816406 0.4375 -61.195312 C 0.21875 -57.578125 0.109375 -53.082031 0.109375 -47.707031 C 0 -43.539062 0 -39.371094 0 -35.09375 L 0 -30.925781 C 0 -25.332031 0 -19.960938 0.21875 -14.804688 C 0.21875 -9.542969 0.328125 -5.265625 0.546875 -1.753906 C 0.546875 0.109375 0.65625 1.644531 0.878906 2.742188 C 0.878906 4.058594 0.988281 4.824219 1.207031 5.042969 C 1.316406 5.703125 1.863281 6.25 2.742188 6.910156 C 3.617188 7.675781 4.277344 8.117188 4.933594 8.117188 C 5.15625 8.226562 5.484375 8.335938 5.703125 8.335938 C 5.921875 8.445312 6.140625 8.445312 6.25 8.445312 C 6.46875 8.554688 6.691406 8.554688 6.910156 8.554688 C 7.566406 8.554688 8.335938 8.335938 9.320312 7.894531 C 10.636719 7.238281 11.515625 6.46875 12.0625 5.59375 C 12.394531 5.042969 12.613281 3.839844 12.722656 1.863281 C 12.722656 0 12.503906 -3.730469 12.28125 -9.433594 C 12.171875 -10.96875 12.171875 -12.394531 12.171875 -13.707031 C 12.171875 -14.914062 12.171875 -15.574219 12.28125 -15.683594 C 12.503906 -15.792969 14.148438 -15.355469 17.4375 -14.367188 C 20.617188 -13.378906 25.882812 -11.625 33.230469 -9.101562 C 37.179688 -7.675781 39.808594 -6.910156 40.90625 -6.800781 C 42.003906 -6.582031 43.210938 -6.910156 44.527344 -7.566406 C 46.171875 -8.445312 47.046875 -9.871094 47.160156 -11.84375 L 47.160156 -12.0625 C 47.160156 -13.820312 46.390625 -15.132812 44.964844 -16.121094 C 44.746094 -16.121094 44.199219 -16.339844 43.539062 -16.671875 C 42.773438 -16.890625 41.785156 -17.328125 40.6875 -17.765625 C 38.496094 -18.535156 35.972656 -19.410156 33.011719 -20.507812 C 29.941406 -21.496094 27.199219 -22.484375 24.566406 -23.359375 C 23.25 -23.796875 22.152344 -24.128906 21.277344 -24.566406 C 20.289062 -24.894531 19.851562 -25.113281 19.851562 -25.222656 C 19.851562 -25.222656 20.070312 -25.664062 20.617188 -26.320312 C 21.058594 -26.871094 21.605469 -27.527344 22.261719 -28.40625 C 28.84375 -36.082031 33.558594 -43.101562 36.300781 -49.242188 C 38.933594 -55.382812 39.808594 -60.976562 38.824219 -66.242188 C 37.726562 -71.066406 35.3125 -75.234375 31.476562 -78.632812 C 27.527344 -82.035156 22.371094 -84.554688 15.902344 -86.203125 Z M 13.160156 -73.480469 C 13.160156 -74.464844 13.269531 -75.015625 13.488281 -75.234375 C 13.488281 -75.453125 13.707031 -75.5625 14.148438 -75.5625 C 14.804688 -75.5625 16.230469 -75.015625 18.316406 -74.136719 C 20.289062 -73.039062 21.824219 -72.164062 22.8125 -71.285156 C 24.347656 -69.96875 25.445312 -68.542969 26.101562 -67.117188 C 26.757812 -65.582031 27.089844 -63.71875 27.089844 -61.636719 C 27.089844 -58.5625 26.101562 -55.054688 24.238281 -51.214844 C 22.261719 -47.378906 19.191406 -42.882812 15.023438 -37.617188 C 14.367188 -36.738281 13.707031 -35.972656 13.160156 -35.421875 C 12.613281 -34.765625 12.28125 -34.546875 12.171875 -34.546875 C 11.953125 -34.546875 11.953125 -36.847656 12.0625 -41.457031 C 12.0625 -46.0625 12.0625 -50.996094 12.28125 -56.371094 C 12.394531 -59.878906 12.503906 -63.171875 12.722656 -66.351562 C 12.832031 -69.421875 12.941406 -71.835938 13.160156 -73.480469 Z M 13.160156 -73.480469 "/></g></g></g><path stroke-linecap="butt" transform="matrix(1.07436, 0, 0, 1.07436, 44.702416, 132.707686)" fill="none" stroke-linejoin="miter" d="M 16.449404 77.447376 C 17.063868 77.75279 17.878306 77.960036 18.696381 77.960036 C 19.514455 77.960036 20.227088 77.854595 20.841553 77.549181 C 21.452381 77.345571 22.168651 76.836547 22.881284 76.018473 C 23.495749 75.407645 23.902968 74.691375 24.106577 73.978742 C 24.106577 73.669692 24.208382 72.138984 24.310187 69.484788 C 24.411992 66.830592 24.513796 63.769177 24.513796 60.296907 C 24.513796 56.828272 24.615601 54.581295 24.822847 53.457807 C 24.924651 52.337954 25.026456 50.396392 25.230066 47.640391 C 25.433675 41.310315 25.637285 36.001923 25.637285 31.511605 C 25.637285 28.755604 25.53548 26.305018 25.433675 24.265286 C 25.128261 19.160504 24.411992 15.281015 23.186698 12.423209 C 22.57587 11.197916 21.8596 9.972623 20.943357 8.950939 C 19.921674 7.932891 18.89999 7.216622 17.878306 6.605793 C 17.165673 6.296743 16.551208 6.093133 16.042184 5.889524 C 15.431356 5.889524 14.409672 5.787719 12.980769 5.787719 C 11.141012 5.787719 9.610304 5.991329 8.486815 6.296743 C 7.261522 6.605793 5.730815 7.216622 3.894693 8.034696 C 1.647716 9.052744 0.422423 10.485282 0.117008 12.2196 C 0.0152035 12.626819 0.0152035 12.932233 0.0152035 13.135843 C 0.0152035 14.670186 0.731473 15.997284 2.160376 17.117137 C 2.567595 17.527992 2.974814 17.731601 3.385669 17.833406 C 3.792888 18.037015 4.200107 18.240625 4.712767 18.240625 C 5.323596 18.444235 6.039865 18.444235 6.650694 18.240625 C 7.159717 18.13882 8.486815 17.731601 10.631988 16.913527 C 11.653671 16.506308 12.366305 16.404503 12.675355 16.506308 C 12.878965 16.709917 13.082574 17.324382 13.387988 18.546039 C 13.897012 20.996626 14.206063 24.672506 14.307867 29.573679 C 14.307867 34.57302 14.206063 41.106706 13.897012 49.171099 C 13.693403 51.927099 13.591598 53.766857 13.489793 54.784905 C 13.286184 55.908393 13.184379 58.15537 13.184379 61.420395 L 13.184379 66.117958 C 13.082574 67.445056 13.082574 68.568545 13.082574 69.484788 C 13.082574 71.62996 13.082574 72.957058 13.184379 73.466082 C 13.184379 74.080547 13.387988 74.487766 13.591598 74.894985 C 13.998817 75.611254 14.409672 76.120278 14.816891 76.527497 C 15.22411 76.938352 15.73677 77.243766 16.449404 77.447376 Z M 31.247455 79.999767 C 32.06553 80.614232 33.087213 80.817841 34.105261 80.817841 C 34.516116 80.817841 35.02514 80.817841 35.639605 80.614232 C 37.170312 80.203377 38.290165 79.287134 39.108239 77.854595 C 39.311848 77.345571 39.617263 76.938352 39.824508 76.527497 C 39.617263 72.855253 39.413653 69.997448 39.413653 68.15769 C 39.210044 63.260153 39.108239 59.177054 39.108239 55.704784 C 39.006434 52.337954 39.108239 50.600001 39.311848 50.600001 C 39.311848 50.600001 39.515458 51.010856 39.824508 51.621685 C 40.028118 52.232514 40.333532 53.050588 40.740751 53.868662 C 42.987728 60.504152 45.845534 65.707103 49.317804 69.586593 C 52.684633 73.466082 55.953294 75.30584 59.218319 75.30584 C 63.505027 75.30584 66.977297 72.651644 69.631493 67.241447 C 72.08208 61.933055 74.020006 53.254197 75.448909 41.20851 C 75.652519 39.372389 75.856128 37.227216 76.059738 34.780266 C 76.266983 32.431484 76.470593 29.980898 76.674202 27.428506 C 76.877812 22.734579 77.081421 18.34243 77.285031 14.259331 C 77.285031 12.525014 77.386836 10.994306 77.386836 9.769013 C 77.386836 8.34011 77.285031 7.318427 77.183226 6.707598 C 76.979617 6.093133 76.674202 5.278695 76.059738 4.460621 C 75.347104 3.747988 74.630835 3.235328 74.020006 2.929913 C 73.303737 2.726304 72.591104 2.522694 71.976639 2.522694 C 71.56942 2.522694 71.162201 2.624499 70.856786 2.624499 C 69.733298 2.828109 68.813419 3.235328 67.998981 3.951597 C 67.180907 4.766035 66.671883 5.685914 66.566442 6.605793 C 66.362833 7.623841 66.159223 10.176232 66.057418 14.259331 C 65.650199 24.163482 65.035735 32.533289 64.323101 39.270584 C 63.606832 46.109683 62.690589 51.927099 61.465295 56.624663 C 60.850831 58.664394 60.443612 60.195102 60.036393 61.216785 C 59.523733 62.340274 59.116514 62.849298 58.912904 62.849298 C 58.502049 62.849298 57.585806 61.83125 56.055099 59.584273 C 54.41895 57.439101 53.197293 55.093955 52.277414 52.541564 C 51.25573 50.294587 50.335852 47.538586 49.419609 44.273561 C 48.49973 41.106706 47.274436 36.412778 45.641924 30.082702 C 44.009412 24.163482 42.987728 20.182188 42.478704 18.240625 C 41.86424 16.404503 41.355216 14.9756 40.740751 13.953917 C 39.617263 12.117795 38.18836 11.096111 36.352238 10.688892 C 34.516116 10.379842 32.879968 10.892502 31.451065 12.2196 C 30.225772 13.343088 29.411334 14.9756 29.004114 17.117137 C 28.593259 19.364114 28.287845 23.956236 27.982431 30.900777 C 27.880626 32.533289 27.880626 34.57302 27.880626 37.023607 C 27.778821 39.575998 27.778821 42.230194 27.778821 45.088 C 27.778821 50.396392 27.778821 55.704784 27.982431 61.013176 C 27.982431 66.423373 28.18604 70.302862 28.38965 72.549839 C 28.491455 74.99679 28.796869 76.734743 29.207724 77.650986 C 29.513138 78.672669 30.225772 79.388939 31.247455 79.999767 Z M 95.958936 77.447376 C 96.573401 77.75279 97.387839 77.960036 98.205913 77.960036 C 99.023987 77.960036 99.736621 77.854595 100.351085 77.549181 C 100.961914 77.345571 101.678183 76.836547 102.390817 76.018473 C 103.005281 75.407645 103.4125 74.691375 103.61611 73.978742 C 103.61611 73.669692 103.717915 72.138984 103.81972 69.484788 C 103.921524 66.830592 104.023329 63.769177 104.023329 60.296907 C 104.023329 56.828272 104.125134 54.581295 104.328743 53.457807 C 104.434184 52.337954 104.535989 50.396392 104.739598 47.640391 C 104.943208 41.310315 105.146818 36.001923 105.146818 31.511605 C 105.146818 28.755604 105.045013 26.305018 104.943208 24.265286 C 104.637794 19.160504 103.921524 15.281015 102.696231 12.423209 C 102.085402 11.197916 101.369133 9.972623 100.45289 8.950939 C 99.431206 7.932891 98.409523 7.216622 97.387839 6.605793 C 96.675206 6.296743 96.060741 6.093133 95.551717 5.889524 C 94.940888 5.889524 93.919205 5.787719 92.490302 5.787719 C 90.650544 5.787719 89.119837 5.991329 87.996348 6.296743 C 86.771055 6.605793 85.240347 7.216622 83.404225 8.034696 C 81.157249 9.052744 79.931955 10.485282 79.626541 12.2196 C 79.524736 12.626819 79.524736 12.932233 79.524736 13.135843 C 79.524736 14.670186 80.241006 15.997284 81.669908 17.117137 C 82.077127 17.527992 82.484347 17.731601 82.895202 17.833406 C 83.302421 18.037015 83.70964 18.240625 84.2223 18.240625 C 84.833128 18.444235 85.549398 18.444235 86.160226 18.240625 C 86.66925 18.13882 87.996348 17.731601 90.14152 16.913527 C 91.163204 16.506308 91.875837 16.404503 92.181252 16.506308 C 92.388497 16.709917 92.592107 17.324382 92.897521 18.546039 C 93.406545 20.996626 93.715595 24.672506 93.8174 29.573679 C 93.8174 34.57302 93.715595 41.106706 93.406545 49.171099 C 93.202935 51.927099 93.101131 53.766857 92.999326 54.784905 C 92.795716 55.908393 92.693912 58.15537 92.693912 61.420395 L 92.693912 66.117958 C 92.592107 67.445056 92.592107 68.568545 92.592107 69.484788 C 92.592107 71.62996 92.592107 72.957058 92.693912 73.466082 C 92.693912 74.080547 92.897521 74.487766 93.101131 74.894985 C 93.50835 75.611254 93.919205 76.120278 94.326424 76.527497 C 94.733643 76.938352 95.246303 77.243766 95.958936 77.447376 Z M 122.395456 82.043135 C 123.41714 82.450354 124.744238 82.552159 126.17314 82.552159 L 126.783969 82.552159 C 128.416481 82.552159 129.947189 82.246744 131.172482 81.835889 C 133.21585 81.225061 135.153776 79.999767 137.197144 78.163645 C 139.13507 76.425692 140.873023 74.385961 142.301926 72.037179 C 143.319974 70.201057 144.341658 68.259495 145.261537 66.219763 C 146.075975 64.278201 146.48683 62.951103 146.48683 62.136664 C 146.48683 59.889687 145.159732 58.35898 142.709145 57.540906 C 140.156754 56.828272 138.117023 57.337296 136.582679 59.177054 C 136.37907 59.482468 136.073655 59.991492 135.666436 60.809566 C 135.255581 61.624005 134.848362 62.543883 134.441143 63.361958 C 133.01224 66.321568 131.685142 68.67035 130.256239 70.302862 C 128.827336 71.935374 127.500238 72.753449 126.37675 72.753449 C 124.947847 72.753449 123.518944 71.324546 122.090042 68.259495 C 120.661139 65.299884 119.53765 61.624005 118.821381 57.235491 C 118.617771 56.624663 118.515967 55.704784 118.515967 54.479491 C 118.312357 53.356002 118.210552 52.130709 118.210552 50.701806 C 118.108748 48.149415 118.108748 45.495219 118.108748 42.637413 C 118.108748 39.779608 118.108748 37.536267 118.312357 35.900118 C 118.617771 32.329679 119.126795 29.061019 119.843065 26.101408 C 120.453893 23.243603 121.271967 20.691212 122.293651 18.65148 C 122.90448 17.426187 123.518944 16.404503 124.231578 15.484624 C 124.846042 14.670186 125.355066 14.157526 125.660481 14.157526 C 125.762285 14.157526 125.969531 14.259331 126.17314 14.462941 C 126.37675 14.670186 126.58036 14.9756 126.783969 15.17921 C 127.805653 16.709917 128.314677 18.956894 128.518286 21.916505 C 128.620091 24.97792 128.314677 28.144776 127.703848 31.4098 C 127.089383 34.165801 126.783969 36.001923 126.987579 36.819997 C 127.089383 37.739876 127.602043 38.554314 128.620091 39.372389 C 129.845384 40.394072 131.172482 40.903096 132.808631 40.699487 C 134.339338 40.597682 135.666436 39.983217 136.789925 38.757924 C 137.197144 38.350705 137.706168 37.227216 138.218827 35.391094 C 138.626046 33.656777 139.033266 31.61341 139.444121 29.162824 C 139.64773 27.326702 139.749535 24.876115 139.64773 22.01831 C 139.444121 19.160504 139.236875 17.015332 138.829656 15.586429 C 138.117023 13.135843 136.993534 10.892502 135.564631 8.950939 C 134.030288 7.114817 132.295971 5.685914 130.358044 4.86784 C 129.438165 4.460621 128.725532 4.257011 128.212872 4.155207 C 127.703848 4.053402 126.885774 3.951597 125.86409 3.951597 C 124.435187 3.951597 123.108089 4.155207 121.988237 4.562426 C 120.762944 4.969645 119.53765 5.584109 118.414162 6.398548 C 114.738282 9.052744 111.880477 13.750307 109.840745 20.487602 C 107.695573 27.428506 106.673889 35.492899 106.673889 44.680781 C 106.673889 50.803611 107.084744 56.213808 108.102792 61.114981 C 109.124476 66.016154 110.553379 70.099252 112.3895 73.466082 C 113.614794 75.713059 115.043697 77.549181 116.883454 78.978084 C 118.617771 80.508791 120.453893 81.530475 122.395456 82.043135 Z M 165.05893 77.447376 C 165.669759 77.75279 166.487833 77.960036 167.305907 77.960036 C 168.120345 77.960036 168.836615 77.854595 169.447443 77.549181 C 170.061908 77.345571 170.774541 76.836547 171.490811 76.018473 C 172.101639 75.407645 172.508859 74.691375 172.716104 73.978742 C 172.716104 73.669692 172.817909 72.138984 172.919714 69.484788 C 173.021518 66.830592 173.123323 63.769177 173.123323 60.296907 C 173.123323 56.828272 173.225128 54.581295 173.428737 53.457807 C 173.530542 52.337954 173.632347 50.396392 173.835957 47.640391 C 174.043202 41.310315 174.246812 36.001923 174.246812 31.511605 C 174.246812 28.755604 174.145007 26.305018 174.043202 24.265286 C 173.734152 19.160504 173.021518 15.281015 171.796225 12.423209 C 171.181761 11.197916 170.469127 9.972623 169.549248 8.950939 C 168.5312 7.932891 167.509517 7.216622 166.487833 6.605793 C 165.771564 6.296743 165.160735 6.093133 164.651711 5.889524 C 164.037247 5.889524 163.015563 5.787719 161.58666 5.787719 C 159.750538 5.787719 158.219831 5.991329 157.096342 6.296743 C 155.871049 6.605793 154.340341 7.216622 152.504219 8.034696 C 150.257243 9.052744 149.031949 10.485282 148.726535 12.2196 C 148.62473 12.626819 148.62473 12.932233 148.62473 13.135843 C 148.62473 14.670186 149.337364 15.997284 150.766266 17.117137 C 151.177121 17.527992 151.584341 17.731601 151.99156 17.833406 C 152.402415 18.037015 152.809634 18.240625 153.318658 18.240625 C 153.933122 18.444235 154.645756 18.444235 155.26022 18.240625 C 155.769244 18.13882 157.096342 17.731601 159.241514 16.913527 C 160.259562 16.506308 160.975831 16.404503 161.281246 16.506308 C 161.484855 16.709917 161.688465 17.324382 161.997515 18.546039 C 162.506539 20.996626 162.811953 24.672506 162.913758 29.573679 C 162.913758 34.57302 162.811953 41.106706 162.506539 49.171099 C 162.302929 51.927099 162.201125 53.766857 162.09932 54.784905 C 161.89571 55.908393 161.793906 58.15537 161.793906 61.420395 L 161.793906 66.117958 C 161.688465 67.445056 161.688465 68.568545 161.688465 69.484788 C 161.688465 71.62996 161.688465 72.957058 161.793906 73.466082 C 161.793906 74.080547 161.997515 74.487766 162.201125 74.894985 C 162.608344 75.611254 163.015563 76.120278 163.426418 76.527497 C 163.833637 76.938352 164.342661 77.243766 165.05893 77.447376 Z M 203.948356 2.111839 C 203.537501 2.111839 203.232087 2.010035 202.926672 2.010035 C 202.621258 2.010035 202.315844 1.90823 202.108598 1.90823 L 201.803184 1.90823 C 200.272476 2.010035 198.843573 2.522694 197.61828 3.438937 C 196.291182 4.358816 195.167694 5.685914 194.251451 7.318427 C 193.127962 9.361794 191.902669 12.423209 190.677376 16.404503 C 189.452083 20.487602 188.226789 24.876115 187.205106 29.777288 C 186.594277 32.431484 186.081617 35.08568 185.572593 37.739876 C 185.063569 40.495877 184.652714 43.150073 184.3473 45.804269 C 184.143691 46.618707 184.041886 47.233172 183.940081 47.844001 C 183.736471 48.458465 183.634667 48.865684 183.634667 48.865684 C 183.431057 48.967489 183.122007 49.069294 182.612983 49.069294 C 181.998518 49.171099 181.18408 49.272903 180.060592 49.272903 C 179.242518 49.374708 178.529884 49.581954 178.02086 49.887368 C 177.406396 50.294587 176.897372 50.600001 176.486517 51.010856 C 175.773883 52.028904 175.468469 53.050588 175.468469 54.072271 C 175.468469 54.6831 175.570274 55.39937 175.875688 56.010198 C 176.486517 57.951761 177.813615 58.868004 179.856982 58.766199 L 180.67142 58.766199 C 180.878666 58.766199 181.082275 58.766199 181.18408 58.664394 C 181.591299 58.664394 181.794909 59.278859 181.794909 60.504152 C 181.794909 61.83125 181.693104 63.260153 181.489494 64.892665 C 181.38769 66.117958 181.285885 67.241447 181.18408 68.361299 C 180.980471 69.484788 180.878666 70.506472 180.776861 71.324546 C 180.569616 72.549839 180.467811 73.567887 180.467811 74.58957 C 180.366006 75.713059 180.366006 76.425692 180.366006 76.734743 C 180.366006 77.960036 180.776861 78.978084 181.591299 79.796158 C 182.409373 80.716037 183.532862 81.225061 184.961765 81.42867 C 186.081617 81.63228 187.205106 81.530475 188.430399 80.919646 C 189.655692 80.406986 190.473766 79.694353 190.880985 78.774474 C 190.98279 78.570864 191.1864 77.854595 191.390009 76.632938 C 191.597255 75.407645 191.800864 74.080547 192.004474 72.444398 C 192.004474 71.83357 192.106279 70.913691 192.309888 69.688397 C 192.513498 68.568545 192.717107 67.343252 192.924353 66.016154 C 193.127962 64.176396 193.433377 62.543883 193.738791 60.911371 C 193.942401 59.380664 194.14601 58.562589 194.251451 58.562589 C 194.353256 58.562589 194.964084 58.460785 196.087573 58.35898 L 204.864599 58.35898 C 205.275454 58.460785 205.580868 58.664394 205.784478 58.868004 C 205.886283 59.278859 205.988087 60.195102 206.191697 61.729445 C 206.293502 63.260153 206.500747 66.830592 206.907966 72.444398 C 207.009771 74.894985 207.111576 76.734743 207.315185 77.854595 C 207.41699 79.079888 207.518795 79.796158 207.72604 79.999767 C 207.92965 80.508791 208.438674 81.021451 209.053138 81.42867 C 209.663967 81.94133 210.172991 82.246744 210.685651 82.348549 C 210.88926 82.450354 211.194675 82.552159 211.809139 82.552159 L 213.238042 82.552159 C 213.848871 82.552159 214.463335 82.552159 214.870554 82.348549 C 215.277774 82.246744 215.684993 82.043135 216.095848 81.734084 C 217.117531 81.021451 217.830165 80.305182 218.033774 79.592548 C 218.135579 79.079888 218.237384 78.163645 218.237384 76.836547 L 218.237384 74.487766 C 218.033774 72.342594 217.93197 69.790202 217.72836 66.932397 C 217.52475 64.074591 217.219336 61.013176 217.012091 57.748151 C 216.503067 51.825295 215.892238 45.702464 215.277774 39.474193 C 214.463335 33.347727 213.848871 28.348385 213.238042 24.468896 C 212.521773 19.873137 211.809139 16.200894 211.194675 13.343088 C 210.583846 10.587087 209.867577 8.34011 209.154943 6.707598 C 208.642283 5.685914 207.92965 4.766035 206.907966 3.849792 C 205.886283 3.031718 204.864599 2.42089 203.948356 2.111839 Z M 195.473108 48.56027 C 195.269499 48.35666 195.473108 46.927758 195.883963 44.477171 C 196.189377 42.128389 196.698401 39.474193 197.312866 36.412778 C 197.923695 32.838703 198.741769 29.370069 199.556207 26.101408 C 200.272476 22.836384 200.7815 21.200235 201.09055 21.098431 C 201.192355 21.098431 201.29416 21.509286 201.49777 22.120114 C 201.701379 22.836384 201.904989 23.854431 202.108598 25.283334 C 202.315844 26.715873 202.519453 28.45019 202.824868 30.388117 C 203.028477 32.431484 203.333891 34.471216 203.642942 36.514583 L 204.559185 44.782585 C 204.762794 47.233172 204.864599 48.56027 204.864599 48.56027 C 204.762794 48.662075 204.25377 48.763879 203.435696 48.763879 C 202.519453 48.763879 201.49777 48.865684 200.272476 48.865684 C 198.127304 48.967489 196.800206 48.967489 196.392987 48.967489 C 195.883963 48.967489 195.578549 48.865684 195.473108 48.56027 Z M 234.566143 -0.233307 C 232.831826 -0.644162 231.399288 -0.949576 230.38124 -1.153185 C 229.155947 -1.356795 228.236068 -1.560405 227.421629 -1.560405 C 226.603555 -1.560405 225.989091 -1.4586 225.480067 -1.25499 C 224.869238 -1.051381 224.356578 -0.745966 223.949359 -0.338747 C 223.131285 0.275717 222.520456 1.195596 222.113237 2.213644 C 221.600578 3.235328 221.193358 5.278695 220.989749 8.34011 C 220.786139 9.972623 220.684335 12.01599 220.578894 14.361136 C 220.375284 16.811722 220.27348 19.669528 220.171675 23.039993 C 219.968065 26.406823 219.86626 30.591726 219.86626 35.594704 C 219.764456 39.474193 219.764456 43.353683 219.764456 47.334977 L 219.764456 51.214466 C 219.764456 56.421053 219.764456 61.420395 219.968065 66.219763 C 219.968065 71.1173 220.06987 75.098594 220.27348 78.367255 C 220.27348 80.101572 220.375284 81.530475 220.578894 82.552159 C 220.578894 83.777452 220.684335 84.490085 220.887944 84.697331 C 220.989749 85.308159 221.498773 85.817183 222.316847 86.431648 C 223.131285 87.144281 223.74575 87.555136 224.356578 87.555136 C 224.560188 87.656941 224.869238 87.758746 225.072848 87.758746 C 225.276457 87.860551 225.480067 87.860551 225.581872 87.860551 C 225.785481 87.962355 225.989091 87.962355 226.196336 87.962355 C 226.807165 87.962355 227.523434 87.758746 228.439677 87.351527 C 229.66497 86.737062 230.483045 86.024429 230.992068 85.206355 C 231.297483 84.697331 231.504728 83.573842 231.606533 81.734084 C 231.606533 79.999767 231.399288 76.527497 231.195678 71.222741 C 231.093873 69.790202 231.093873 68.46674 231.093873 67.241447 C 231.093873 66.117958 231.093873 65.503494 231.195678 65.401689 C 231.399288 65.299884 232.933631 65.707103 235.995046 66.626982 C 238.954657 67.546861 243.855829 69.179374 250.694929 71.528155 C 254.367173 72.855253 256.817759 73.567887 257.839443 73.669692 C 258.861127 73.876937 259.984615 73.567887 261.209908 72.957058 C 262.740616 72.138984 263.555054 70.811886 263.656859 68.975764 L 263.656859 68.772154 C 263.656859 67.139642 262.944226 65.914349 261.617128 64.99447 C 261.413518 64.99447 260.900858 64.79086 260.29003 64.485446 C 259.57376 64.278201 258.657517 63.870982 257.635834 63.463762 C 255.592466 62.747493 253.24732 61.933055 250.49132 60.911371 C 247.629878 59.991492 245.081123 59.075249 242.630536 58.257175 C 241.405243 57.849956 240.383559 57.540906 239.569121 57.133687 C 238.649242 56.828272 238.242023 56.624663 238.242023 56.522858 C 238.242023 56.522858 238.445633 56.112003 238.954657 55.501174 C 239.361876 54.99215 239.874535 54.377686 240.485364 53.559612 C 246.61183 46.415098 251.000343 39.881412 253.552735 34.165801 C 256.003321 28.45019 256.817759 23.243603 255.901516 18.34243 C 254.879833 13.852112 252.632856 9.972623 249.062417 6.809403 C 245.386537 3.642547 240.587169 1.297401 234.566143 -0.233307 Z M 232.013752 11.605135 C 232.013752 10.688892 232.115557 10.176232 232.319166 9.972623 C 232.319166 9.769013 232.522776 9.667208 232.933631 9.667208 C 233.54446 9.667208 234.871558 10.176232 236.809484 10.994306 C 238.649242 12.01599 240.078145 12.830428 240.998024 13.648502 C 242.426927 14.873796 243.444974 16.200894 244.059439 17.527992 C 244.670268 18.956894 244.979318 20.691212 244.979318 22.632774 C 244.979318 25.49058 244.059439 28.755604 242.325122 32.329679 C 240.485364 35.900118 237.627559 40.085022 233.748069 44.986195 C 233.137241 45.804269 232.522776 46.516903 232.013752 47.029562 C 231.504728 47.640391 231.195678 47.844001 231.093873 47.844001 C 230.890264 47.844001 230.890264 45.702464 230.992068 41.41212 C 230.992068 37.125412 230.992068 32.533289 231.195678 27.530311 C 231.297483 24.265286 231.399288 21.200235 231.606533 18.240625 C 231.708338 15.382819 231.810143 13.135843 232.013752 11.605135 Z M 232.013752 11.605135 " stroke="#000000" stroke-width="3.919875" stroke-opacity="1" stroke-miterlimit="4"/></svg>