<svg xmlns="http://www.w3.org/2000/svg" xmlns:xlink="http://www.w3.org/1999/xlink" zoomAndPan="magnify" preserveAspectRatio="xMidYMid meet" version="1.0" viewBox="31.78 366.38 704.02 35.27"><defs><clipPath id="5d4a0a835c"><path d="M 31 366.441406 L 736 366.441406 L 736 401.691406 L 31 401.691406 Z M 31 366.441406 " clip-rule="nonzero"/></clipPath></defs><g clip-path="url(#5d4a0a835c)"><path fill="#000000" d="M 735.785156 401.644531 C 722.621094 401.644531 715.816406 394.332031 710.355469 388.457031 C 705.457031 383.191406 701.917969 379.386719 694.367188 379.386719 C 686.816406 379.386719 683.28125 383.191406 678.378906 388.457031 C 672.914062 394.332031 666.109375 401.644531 652.953125 401.644531 C 639.789062 401.644531 632.988281 394.332031 627.523438 388.457031 C 622.625 383.191406 619.085938 379.386719 611.539062 379.386719 C 603.992188 379.386719 600.453125 383.191406 595.554688 388.457031 C 590.085938 394.332031 583.285156 401.644531 570.125 401.644531 C 556.96875 401.644531 550.164062 394.332031 544.699219 388.457031 C 539.800781 383.191406 536.261719 379.386719 528.71875 379.386719 C 521.167969 379.386719 517.632812 383.191406 512.730469 388.457031 C 507.269531 394.328125 500.46875 401.644531 487.304688 401.644531 C 474.148438 401.644531 467.34375 394.332031 461.882812 388.457031 C 456.980469 383.191406 453.441406 379.386719 445.894531 379.386719 C 438.347656 379.386719 434.808594 383.191406 429.910156 388.457031 C 424.445312 394.332031 417.644531 401.644531 404.484375 401.644531 C 391.328125 401.644531 384.523438 394.332031 379.058594 388.457031 C 374.160156 383.191406 370.621094 379.386719 363.074219 379.386719 C 355.523438 379.386719 351.988281 383.191406 347.089844 388.457031 C 341.625 394.332031 334.820312 401.644531 321.660156 401.644531 C 308.503906 401.644531 301.703125 394.328125 296.234375 388.457031 C 291.335938 383.191406 287.796875 379.386719 280.253906 379.386719 C 272.710938 379.386719 269.171875 383.191406 264.273438 388.457031 C 258.804688 394.332031 252.003906 401.644531 238.847656 401.644531 C 225.6875 401.644531 218.886719 394.332031 213.421875 388.457031 C 208.519531 383.191406 204.984375 379.386719 197.4375 379.386719 C 189.894531 379.386719 186.355469 383.191406 181.457031 388.457031 C 175.988281 394.328125 169.1875 401.644531 156.03125 401.644531 C 142.871094 401.644531 136.070312 394.328125 130.605469 388.457031 C 125.707031 383.191406 122.167969 379.386719 114.625 379.386719 C 107.078125 379.386719 103.539062 383.191406 98.640625 388.457031 C 93.175781 394.332031 86.371094 401.644531 73.214844 401.644531 C 60.058594 401.644531 53.257812 394.328125 47.789062 388.457031 C 42.894531 383.191406 39.355469 379.386719 31.808594 379.386719 L 31.808594 366.402344 C 44.964844 366.402344 51.769531 373.71875 57.230469 379.59375 C 62.128906 384.859375 65.671875 388.660156 73.214844 388.660156 C 80.757812 388.660156 84.296875 384.859375 89.195312 379.59375 C 94.664062 373.714844 101.464844 366.402344 114.625 366.402344 C 127.78125 366.402344 134.585938 373.714844 140.046875 379.59375 C 144.949219 384.859375 148.484375 388.660156 156.03125 388.660156 C 163.578125 388.660156 167.113281 384.859375 172.011719 379.59375 C 177.480469 373.71875 184.28125 366.402344 197.4375 366.402344 C 210.597656 366.402344 217.398438 373.71875 222.863281 379.59375 C 227.761719 384.859375 231.300781 388.660156 238.847656 388.660156 C 246.390625 388.660156 249.929688 384.859375 254.828125 379.59375 C 260.292969 373.71875 267.097656 366.402344 280.253906 366.402344 C 293.410156 366.402344 300.214844 373.71875 305.679688 379.59375 C 310.578125 384.859375 314.117188 388.660156 321.660156 388.660156 C 329.210938 388.660156 332.75 384.859375 337.644531 379.59375 C 343.109375 373.71875 349.914062 366.402344 363.074219 366.402344 C 376.234375 366.402344 383.035156 373.71875 388.5 379.59375 C 393.402344 384.859375 396.941406 388.660156 404.484375 388.660156 C 412.03125 388.660156 415.570312 384.859375 420.464844 379.59375 C 425.933594 373.714844 432.738281 366.402344 445.894531 366.402344 C 459.054688 366.402344 465.855469 373.714844 471.324219 379.59375 C 476.21875 384.859375 479.757812 388.660156 487.304688 388.660156 C 494.851562 388.660156 498.394531 384.859375 503.292969 379.59375 C 508.753906 373.714844 515.558594 366.402344 528.71875 366.402344 C 541.875 366.402344 548.675781 373.714844 554.144531 379.59375 C 559.042969 384.859375 562.582031 388.660156 570.125 388.660156 C 577.671875 388.660156 581.210938 384.859375 586.109375 379.59375 C 591.578125 373.714844 598.378906 366.402344 611.539062 366.402344 C 624.699219 366.402344 631.503906 373.71875 636.964844 379.59375 C 641.863281 384.859375 645.402344 388.660156 652.953125 388.660156 C 660.5 388.660156 664.039062 384.859375 668.9375 379.59375 C 674.402344 373.714844 681.207031 366.402344 694.367188 366.402344 C 707.527344 366.402344 714.332031 373.714844 719.796875 379.59375 C 724.695312 384.859375 728.234375 388.660156 735.785156 388.660156 L 735.785156 401.644531 " fill-opacity="1" fill-rule="nonzero"/></g></svg>