<svg xmlns="http://www.w3.org/2000/svg" xmlns:xlink="http://www.w3.org/1999/xlink" width="1024" zoomAndPan="magnify" viewBox="0 0 768 767.999994" height="1024" preserveAspectRatio="xMidYMid meet" version="1.0"><defs><clipPath id="5a958a308f"><path d="M 46.65625 38.421875 L 690.90625 38.421875 L 690.90625 729.527344 L 46.65625 729.527344 Z M 46.65625 38.421875 " clip-rule="nonzero"/></clipPath></defs><g clip-path="url(#5a958a308f)"><path fill="#000000" d="M 660.164062 658.789062 C 576.136719 648.074219 490.445312 643.296875 405.945312 644.519531 C 386.335938 644.8125 370.675781 660.949219 370.953125 680.558594 C 371.25 699.988281 387.082031 715.542969 406.449219 715.542969 C 406.640625 715.542969 406.8125 715.542969 406.988281 715.542969 C 488.464844 714.3125 570.484375 718.949219 651.183594 729.242188 C 652.710938 729.449219 654.21875 729.535156 655.726562 729.535156 C 673.328125 729.535156 688.621094 716.433594 690.910156 698.507812 C 693.390625 679.050781 679.621094 661.269531 660.164062 658.789062 Z M 548.515625 321.277344 C 539.757812 303.753906 518.445312 296.578125 500.863281 305.402344 L 264.746094 423.496094 C 247.199219 432.261719 240.089844 453.597656 248.863281 471.144531 C 255.089844 483.578125 267.625 490.773438 280.664062 490.773438 C 285.988281 490.773438 291.417969 489.570312 296.515625 487.011719 L 532.632812 368.917969 C 550.179688 360.152344 557.289062 338.816406 548.515625 321.277344 Z M 231.421875 91.210938 L 113.199219 303.445312 C 106.695312 315.105469 94.609375 321.683594 82.140625 321.683594 C 76.296875 321.683594 70.367188 320.238281 64.890625 317.183594 C 47.757812 307.640625 41.601562 286.015625 51.15625 268.886719 L 169.378906 56.652344 C 178.914062 39.53125 200.554688 33.375 217.671875 42.914062 C 234.820312 52.449219 240.976562 74.082031 231.421875 91.210938 " fill-opacity="1" fill-rule="nonzero"/></g></svg>