<svg xmlns="http://www.w3.org/2000/svg" xmlns:xlink="http://www.w3.org/1999/xlink" width="1024" zoomAndPan="magnify" viewBox="0 0 768 767.999994" height="1024" preserveAspectRatio="xMidYMid meet" version="1.0"><path fill="#000000" d="M 715.355469 118.957031 C 712.007812 101.351562 690.179688 99.855469 678.558594 109.273438 L 551.355469 211.828125 L 471.6875 64.90625 C 462.003906 47.300781 437.621094 53.460938 431.460938 70.1875 L 344.839844 304.171875 C 279.828125 260.4375 211.042969 222.609375 139.289062 191.140625 C 122.386719 183.746094 101.613281 195.980469 106.980469 215.964844 L 180.839844 493.609375 C 127.511719 500.941406 74.894531 512.722656 23.53125 528.820312 C 9.445312 533.3125 -0.0625 555.230469 13.847656 565.617188 C 85.835938 621.746094 163.839844 669.6875 246.421875 708.578125 C 271.949219 720.550781 294.308594 682.167969 268.605469 670.550781 C 201.640625 639.300781 137.722656 601.894531 77.667969 558.839844 C 120.589844 547.289062 164.316406 538.925781 208.480469 533.839844 C 220.820312 533.515625 230.566406 523.230469 230.234375 510.890625 C 230.1875 509.304688 229.976562 507.738281 229.609375 506.199219 L 161.382812 249.679688 C 225.1875 280.480469 286.386719 316.398438 344.398438 357.074219 C 356.984375 365.878906 372.214844 356.109375 376.703125 343.960938 L 455.929688 129.078125 L 525.5625 256.632812 C 531.988281 267.179688 545.738281 270.527344 556.285156 264.109375 C 557.675781 263.261719 558.980469 262.257812 560.160156 261.125 L 678.558594 165.347656 C 685.195312 208.367188 689.164062 251.765625 690.441406 295.28125 C 691.234375 323.535156 735.25 323.625 734.457031 295.28125 C 732.757812 236.097656 726.367188 177.136719 715.355469 118.957031 Z M 715.355469 118.957031 " fill-opacity="1" fill-rule="nonzero"/></svg>